<?xml version="1.0" encoding="UTF-8" standalone="no"?>
<svg
   width="1347.9065"
   viewBox="0 0 1347.9064 234.95703"
   height="234.95703"
   version="1.0"
   id="svg18"
   sodipodi:docname="thank-you.svg"
   inkscape:version="1.1 (c68e22c387, 2021-05-23)"
   xmlns:inkscape="http://www.inkscape.org/namespaces/inkscape"
   xmlns:sodipodi="http://sodipodi.sourceforge.net/DTD/sodipodi-0.dtd"
   xmlns="http://www.w3.org/2000/svg"
   xmlns:svg="http://www.w3.org/2000/svg">
  <sodipodi:namedview
     id="namedview20"
     pagecolor="#ffffff"
     bordercolor="#666666"
     borderopacity="1.0"
     inkscape:pageshadow="2"
     inkscape:pageopacity="0.0"
     inkscape:pagecheckerboard="true"
     showgrid="false"
     inkscape:zoom="0.53740741"
     inkscape:cx="764.78291"
     inkscape:cy="48.380427"
     inkscape:window-width="1920"
     inkscape:window-height="974"
     inkscape:window-x="-11"
     inkscape:window-y="-11"
     inkscape:window-maximized="1"
     inkscape:current-layer="svg18"
     fit-margin-top="0"
     fit-margin-left="0"
     fit-margin-right="0"
     fit-margin-bottom="0" />
  <defs
     id="defs8">
    <clipPath
       id="a">
      <path
         d="M 1,219.05078 H 176 V 440 H 1 Z m 0,0"
         id="path2" />
    </clipPath>
    <clipPath
       id="b">
      <path
         d="M 121,235 H 1349 V 454.94922 H 121 Z m 0,0"
         id="path5" />
    </clipPath>
  </defs>
  <g
     id="g106"
     transform="translate(-1.039062,-219.65625)">
    <g
       clip-path="url(#a)"
       id="g12">
      <path
         d="m 150.69141,236.83984 c 13.89843,0 24.53125,-3.00781 24.53125,-8.46093 0,-2.44532 -2.1836,-4.62891 -4.35547,-4.62891 -0.82422,0 -1.91016,0.55078 -2.73438,1.35937 -1.90625,1.63672 -0.53515,5.72657 -2.99219,6.27735 -3.26953,1.08594 -7.91015,1.35547 -14.17578,1.35547 -19.08203,-0.26953 -39.79687,-3.81641 -58.601559,-7.35938 -12.269531,-2.18359 -33.804687,-5.72656 -52.886719,-5.72656 -15.8125,0 -29.988281,2.18359 -36.253906,9.54687 -1.644531,1.63282 -2.183594,2.99219 -2.183594,4.35547 0,2.73047 2.992188,4.36719 5.453126,4.36719 3.808593,0 4.628906,-2.18359 4.628906,-4.36719 v -2.99609 c 0,-1.35938 0.273437,-2.71875 1.910156,-3.26953 6.539062,-2.71875 16.082031,-3.54297 26.164062,-3.54297 16.898438,0 35.441407,2.73437 45.800782,4.36719 -4.09375,16.07422 -12.542969,95.67578 -12.542969,157.82422 0,19.08203 0.820313,35.97656 2.992187,48.78906 0.273438,3.54297 3.820313,5.17969 7.363282,5.17969 4.902344,0 10.082031,-2.72266 10.082031,-6.8125 -0.539063,-8.72266 -1.359375,-18.25782 -1.359375,-30.80079 0,-55.8789 7.636719,-133.57421 13.90234,-170.63671 19.91016,3.26953 34.625,4.90234 45.25782,5.17968 z m 0,0"
         id="path10" />
    </g>
    <g
       clip-path="url(#b)"
       id="g16">
      <path
         d="m 1345.1289,330.32031 c -1.3594,0 -2.7226,0.53906 -4.082,1.91016 -11.7266,13.6289 -28.625,20.4414 -50.7031,20.4414 -23.9922,0 -52.336,-5.17968 -81.7735,-10.63281 -21.2656,-4.08984 -60.2461,-11.44531 -94.3164,-11.44531 -21.8125,0 -41.707,2.99609 -53.707,11.99609 -10.8985,8.44532 -17.1719,21.25391 -23.711,37.60938 -5.4531,13.35156 -14.1797,38.4375 -22.625,38.98437 -1.0859,-1.35937 -1.6367,-8.18359 -1.6367,-17.71875 0,-26.4414 3.2695,-59.42578 3.543,-66.51562 0,-4.62891 -3.8164,-6.53906 -8.7227,-6.8125 -3.2695,0 -6.2734,1.35937 -7.3593,5.17969 -4.62895,15.8125 -15.81254,54.24609 -23.17583,60.23437 -0.53515,-1.08594 -0.53515,-4.07812 -0.53515,-8.44531 0,-23.16406 1.90625,-37.33985 2.44531,-44.97656 0,-4.62891 -1.63672,-6.53907 -8.44922,-6.53907 -3.8164,0 -7.625,1.63282 -8.17578,6.53907 0,0.7539 -0.21484,3.34375 -0.46875,6.95312 -5.57031,4.39063 -12.64844,7.66797 -20.25391,9.94531 v -2.17187 c 0,-21.26563 -10.91015,-30.8125 -21.53906,-30.8125 -7.36328,0 -14.71484,4.64062 -17.99609,12.8164 -0.8125,1.90625 -1.08594,3.81641 -1.08594,5.72657 0,2.63281 0.66016,4.92187 1.39063,6.79687 -6.23829,3.57422 -14.58204,7.21485 -23.77344,11.1836 1.08594,-13.07813 1.35937,-26.44141 1.35937,-39.79688 0,-31.89453 -2.17187,-62.14453 -3.8164,-78.77734 0,-4.35938 -4.35547,-6.26563 -8.17578,-6.26563 -5.72657,0 -11.99219,3.54297 -11.99219,8.72266 v 0.27344 c -3.82031,21.80468 -22.07422,122.93359 -39.25781,130.57031 -0.53907,0.27344 -1.08594,0.54687 -1.63672,0.54687 -7.625,0 -8.44532,-26.16797 -8.44532,-38.70703 0.27344,-32.70703 2.73047,-63.51953 7.35938,-88.05469 l 0.27344,-1.08593 c 0,-5.45313 -4.62891,-7.35938 -10.35938,-7.63672 -4.08984,0 -8.72265,1.63672 -10.35547,5.72656 -2.18359,6.26172 -7.36328,40.62109 -7.36328,72.77734 0,9.52735 0.48047,18.83985 1.58203,27.24219 -0.41406,0.20703 -0.78515,0.49219 -1.12109,0.83594 -19.35547,36.52734 -55.07031,70.87891 -97.85938,74.14844 l -8.1875,0.53906 c -27.52734,0 -55.60546,-11.16797 -78.5039,-26.98047 29.71094,-18.54687 71.6914,-58.06641 71.6914,-97.3125 0,-19.35156 -11.71875,-35.98828 -29.4375,-35.98828 -14.17578,0 -29.98437,10.35937 -37.61328,32.98437 -6,-24.53125 -21.53515,-34.89062 -36.52343,-34.89062 -14.44922,0 -28.35157,9.54297 -32.98438,24.80859 -1.90625,6.27344 -2.73047,12.54297 -2.73047,18.53125 0,36.26563 30.8086,69.78516 60.52344,91.59766 C 566.76562,411.82031 537.05078,423 500.78906,423 c -11.16797,0 -22.88672,-1.37109 -31.60937,-4.91406 -18.54297,-7.35157 -17.99219,-20.99219 -20.98828,-38.4375 -1.3711,-9.8086 -3.00391,-17.98438 -7.63672,-22.625 19.35547,-2.72266 29.98437,-21.80078 29.98437,-36.52735 0,-10.08203 -4.64062,-17.98047 -14.44922,-17.98047 -24.25781,0.8125 -39.52343,51.78516 -44.69922,74.13672 -0.82031,-8.72265 -1.09765,-18.25781 -1.09765,-28.07812 l 0.27344,-14.98828 c 17.17187,-10.63282 36.52343,-44.71094 36.80078,-67.875 0,-11.45313 -5.17578,-20.17969 -16.89844,-20.17969 -3.54297,0 -8.44531,0.55078 -11.72656,1.91016 -19.6211,8.72265 -25.34766,59.42578 -25.34766,99.22265 0,0.33594 0.008,0.65625 0.008,0.98828 -6.35547,18.47657 -19.49218,65.01953 -28.37109,67.70703 l -1.37109,0.26954 c -3.81641,0 -4.90235,-6 -4.90235,-14.72266 0,-18.53516 5.17578,-49.60547 5.17578,-70.87109 0,-6.8125 -0.54687,-12.54297 -1.90625,-16.63282 -1.63672,-4.35937 -5.99218,-7.6289 -10.35937,-7.89843 h -0.54688 c -17.44922,0 -29.71484,45.24609 -35.42968,70.32812 l 1.63671,-35.98828 c 0,-4.35547 -3.82031,-6.8125 -7.64062,-7.08984 h -0.8125 c -4.08984,0 -8.18359,2.18359 -8.72266,6.55468 -0.32031,2 -0.57812,5.26953 -0.79687,8.96875 -6.9961,14.9375 -23.03125,59.82813 -32.76563,62.98438 -0.53906,0 -1.35937,-2.17188 -1.63672,-5.17969 -0.53515,-3.54297 -0.8125,-8.17578 -0.8125,-13.35156 0,-23.44531 4.62891,-59.42578 5.17969,-64.60547 l 0.26953,-1.08594 c 0,-4.64062 -4.08984,-6.82422 -8.18359,-6.82422 -3.80859,0 -7.625,1.91016 -8.44922,4.91797 l -1.08594,5.17578 c -2.45703,-3.8164 -6.8125,-7.35937 -11.17968,-8.18359 l -3.54297,-0.26563 c -14.15235,0 -21.75391,18.36329 -24.42969,32.67969 -6.92188,19.86719 -22.78906,66.54297 -29.81641,66.54297 h -0.27343 c -3.00391,-0.27344 -4.08985,-5.72656 -4.08985,-12.54297 0,-11.71875 2.72266,-27.52734 3.54297,-32.44531 1.63672,-11.71875 3.26953,-23.4375 3.26953,-32.43359 0,-6.26563 -0.8125,-11.17969 -2.99219,-13.90235 -1.63671,-1.90625 -5.17968,-2.45703 -8.44921,-2.45703 -3.00391,0 -5.72657,0.55078 -7.08985,1.09766 -6.27344,2.44531 -11.45312,9.8125 -15.80859,18.25781 -4.90625,10.35937 -8.44922,22.625 -10.35938,30.53516 -1.63672,-9.82032 -2.18359,-22.625 -2.18359,-34.89063 v -6.8125 h 0.27344 c 17.44531,-7.08984 34.61718,-41.98047 37.33593,-66.23828 l 0.55079,-6.55078 c 0,-10.08203 -3.54297,-16.89844 -11.44532,-16.89844 -5.45312,0 -10.09375,0.82031 -14.72656,2.73047 -13.89844,5.99219 -21.80078,25.62109 -25.89453,48.79297 -2.45703,14.4375 -3.54297,30.25 -3.54297,44.97656 0,19.62891 1.63672,37.07422 4.09375,47.69531 0.27344,2.45703 3.26953,3.28125 6.53906,3.28125 1.35938,0 2.72266,0 4.08985,-0.26953 2.99609,-0.55078 6.8125,-2.18359 6.8125,-5.72656 v -0.27344 c 2.17578,-11.44531 6.26562,-26.70703 11.99609,-38.4375 4.07813,-7.89844 8.44531,-14.17578 13.35156,-16.08594 0.27344,1.09766 0.27344,2.1836 0.27344,3.82032 0,12.26562 -7.08984,41.4414 -7.08984,63.24609 0,6.53906 0.82422,12.53906 2.45703,16.89453 2.99609,7.64063 10.08203,8.1875 18.53125,8.44922 h 0.27344 c 9.07421,0 21.1289,-32.05859 29.24609,-55.26172 0.34375,11.82031 3.86328,25.01172 15.74219,25.01172 l 2.18359,-0.27344 c 7.625,-1.08593 14.4375,-21.26562 19.62109,-37.88672 -0.26562,4.90235 -0.8125,12.53125 -0.8125,20.71485 0,15.53906 1.63282,32.70703 8.17188,36.80078 1.91016,1.35937 4.09375,1.91016 6.27734,1.91016 1.63282,0 3.26953,-0.27344 4.90235,-0.82032 10.23828,-3.11718 23.0039,-35.80859 31.20703,-55.58984 -0.0703,3.02344 -0.10938,6.14062 -0.10938,9.25391 0,12.26562 0.54688,24.53125 1.09766,29.71093 0.54687,4.08203 4.35547,5.99219 7.89844,5.99219 6.27343,0 6.8125,-4.08203 7.91015,-9.26172 3.54297,-17.18359 16.34766,-81.78515 33.79297,-85.33203 0.54688,0.27344 0.54688,1.37109 0.54688,3.28125 0,11.44531 -6.8125,48.79297 -6.8125,76.05078 0,13.89844 1.63672,25.07813 7.36328,28.88672 1.90625,1.09766 5.98828,1.63281 9.53125,1.63281 2.45703,0 4.64062,0 6.0039,-0.53515 9.56641,-2.73438 20.26954,-36.85547 27.50782,-59.29688 0.47265,13.45313 1.65234,24.79297 3.3164,31.21875 0.26953,3.82031 3.81641,4.90625 7.08594,4.90625 4.09375,-0.27344 8.44922,-1.08594 8.72266,-5.45703 1.91015,-11.44141 4.90625,-23.70703 8.72656,-35.4375 10.90625,6.27344 10.90625,38.17188 22.07422,52.33594 11.45703,15.27734 36.80078,19.35547 58.61328,19.35547 37.88672,0 68.14844,-12.26563 96.22266,-29.71094 23.71093,16.90625 53.14843,28.625 82.3125,28.625 l 8.1875,-0.54688 c 43.08203,-3.46093 79.12109,-36.77734 99.58984,-73.58593 2.21094,12.51562 6.08594,22.32422 12.52734,26.16406 3.00391,1.89844 6.27344,2.71875 9.82032,2.71875 2.44531,0 4.90625,-0.54688 7.08984,-1.63281 16.89844,-7.08985 32.98047,-86.41797 39.52344,-120.48438 1.63281,16.35938 3.26953,42.52735 3.26953,70.0586 0,13.625 -0.27344,27.52734 -1.35938,40.60546 -29.16406,13.64063 -59.15234,31.35938 -59.15234,58.33985 0,13.09375 7.89844,25.08203 25.34766,26.99219 l 3.26953,0.26562 c 10.09375,0 20.98828,-5.71484 27.8125,-14.16406 11.44531,-14.17969 18.80468,-44.16406 21.52734,-75.23438 9.93359,-4.34765 18.89453,-8.22265 25.75,-12.22265 0.1875,0.3164 0.40625,0.67578 0.45313,0.76953 0,0.26953 -1.63672,8.99609 -1.63672,19.35156 0,9.82422 1.35937,20.71875 7.36328,26.71875 2.18359,2.18359 5.98828,2.71875 9.25781,2.71875 h 1.37109 c 4.90625,0 8.9961,-4.07812 11.9961,-9.80859 5.17578,-9.54297 7.89844,-23.72266 8.72265,-31.34766 7.00782,-1.97266 14.11719,-5.21094 19.92188,-9.21875 -0.29688,4.84766 -0.55469,10.57422 -0.55469,16.30859 0,12.53907 1.08594,25.07032 5.98828,28.61329 1.09766,0.82421 3.82032,1.37109 6.53907,1.37109 1.64843,0 3.54296,-0.27344 4.64062,-0.82031 6.26563,-3.26953 14.45313,-25.89453 20.16797,-44.42969 -0.27344,4.90625 -1.08594,16.625 -1.08594,29.16406 0,17.72266 1.63672,37.07422 8.44925,40.07422 1.6328,0.54688 3.8164,0.8125 6,0.8125 h 2.7226 c 16.6211,-0.53906 26.7149,-61.32422 49.3399,-77.68359 11.168,-8.17578 29.7148,-10.90625 50.4258,-10.90625 33.7929,0 73.0547,7.35937 94.0429,11.45312 29.1641,5.44531 57.7891,10.63281 82.0508,10.63281 23.1719,-0.27343 44.1641,-3.54296 56.9649,-18.26953 1.3632,-1.63281 1.9101,-3.26953 1.9101,-4.36718 0,-2.44922 -1.9101,-3.8086 -3.8164,-3.8086 z m -914.66406,-80.6875 c 9.8086,0.27344 12.80078,7.36328 12.80078,16.08594 0,20.98828 -17.44531,51.78906 -32.70703,62.96875 1.63672,-39.25781 8.44922,-76.59766 19.90625,-79.05469 z m -265.28906,0.27344 h 0.27344 c 4.90234,0 7.07422,4.90625 7.07422,12.54297 l -0.53516,6.8125 c -2.73437,21.26562 -17.17187,53.97265 -33.53125,61.87109 0.55078,-19.07812 4.62891,-80.95312 26.71875,-81.22656 z m 63.79297,140.65234 -0.8125,-0.27343 c -0.55078,-1.08594 -0.82422,-3.54297 -0.82422,-6.53907 0,-16.36328 7.36328,-54.24609 13.08203,-57.51562 2.45703,0.82031 4.36719,2.18359 6.27344,3.8164 1.91016,1.91016 3.26953,4.35938 4.09375,7.08985 -3.00781,8.99219 -14.45313,53.42187 -21.8125,53.42187 z M 422.82422,351.3125 c 5.45703,-15.8125 16.89844,-41.98047 30.80078,-44.16406 2.18359,0 3.00391,1.63672 3.00391,4.35547 0,5.72656 -3.54297,15.27343 -4.36719,17.18359 -4.35547,10.89453 -14.71485,23.16016 -25.89453,23.16016 z m 120.21094,-47.16016 c 0,-5.72656 0.82421,-11.45703 2.73437,-17.17187 4.35547,-13.36328 14.4375,-20.72656 25.34375,-20.72656 13.35547,0 27.80469,10.91015 33.25781,35.16796 0,1.35938 1.08594,1.90625 1.90625,1.90625 0.8125,0 1.63672,-0.54687 1.91016,-1.63281 7.89844,-23.71094 21.53906,-33.80469 33.53125,-33.80469 10.35937,0 19.35547,7.63672 22.07422,20.45313 0.82422,4.07812 1.08594,7.89844 1.08594,11.71484 0,38.16016 -36.52344,73.05078 -66.50391,92.13282 -28.62109,-20.98829 -55.33984,-55.32813 -55.33984,-88.03907 z m 303.21093,126.47657 c -3.26953,6.8125 -11.99609,19.35546 -20.16797,19.90234 -15.26562,-1.63281 -21.80468,-11.99219 -21.80468,-23.17188 0,-24.25781 28.61718,-41.42968 54.78125,-53.69531 -2.17969,22.6211 -5.98438,43.0625 -12.8086,56.96485 z m 82.62891,-39.25 c -2.45703,4.08203 -4.90234,6.8125 -7.63672,7.08984 -2.17187,-1.63672 -2.99219,-8.1875 -3.26953,-16.08594 0,-6.27344 0.27344,-13.08984 0.82031,-19.35547 1.91016,0.27344 4.08203,0.55078 6.26563,0.55078 3.8164,0 7.91015,-0.55078 11.99218,-1.37109 -1.08203,10.09375 -4.07812,21.8125 -8.17187,29.17188 z m 8.72266,-33.25391 c -4.35547,0.8125 -8.72266,1.35937 -12.8125,1.35937 -1.91016,0 -3.8086,0 -5.45313,-0.27343 0.54688,-4.90625 1.37109,-8.9961 2.18359,-11.71875 l 0.27344,-1.63282 c 0,-2.99609 -2.72265,-4.90625 -5.72656,-5.72656 l -3.27344,-0.55078 c -2.71875,0 -5.45312,1.09766 -5.98828,3.28125 0,0.53906 -0.27344,1.08594 -0.55078,1.63672 0.55078,-7.91016 8.17578,-14.17969 15.8125,-14.17969 7.63672,0 15.53516,6.8125 15.53516,24.53516 z m 0,0"
         id="path14" />
    </g>
  </g>
</svg>
